<svg width="152" height="34" viewBox="0 0 152 34" fill="none" xmlns="http://www.w3.org/2000/svg">
<path d="M55.4501 16.635C55.4501 25.7887 48.0568 33.2701 38.8151 33.2701C29.6614 33.2701 22.1801 25.7887 22.1801 16.635C22.1801 7.48137 29.5734 7.62939e-06 38.7271 7.62939e-06C48.0568 7.62939e-06 55.4501 7.48137 55.4501 16.635Z" fill="#FFB600"/>
<path d="M38.8151 7.62939e-06C47.9688 7.62939e-06 55.4501 7.48137 55.4501 16.635C55.4501 25.7887 48.0568 33.2701 38.8151 33.2701C29.6614 33.2701 22.1801 25.7887 22.1801 16.635" fill="#F7981D"/>
<path d="M38.8151 7.62939e-06C47.9687 7.62939e-06 55.4501 7.48137 55.4501 16.635C55.4501 25.7887 48.0568 33.2701 38.8151 33.2701" fill="#FF8500"/>
<path d="M16.459 0C7.39335 0.0880161 0 7.48136 0 16.635C0 25.7887 7.39335 33.2701 16.635 33.2701C20.9478 33.2701 24.8205 31.5978 27.8131 28.9573C28.4292 28.4292 28.9573 27.8131 29.4854 27.197H26.0528C25.6127 26.6689 25.1726 26.0527 24.8205 25.5247H30.7176C31.0697 24.9966 31.4217 24.3804 31.6858 23.7643H23.8524C23.5883 23.2362 23.3243 22.6201 23.1482 22.004H32.3019C32.83 20.3317 33.1821 18.5714 33.1821 16.723C33.1821 15.4908 33.006 14.3466 32.83 13.2024H22.6201C22.7081 12.5863 22.8842 12.0582 23.0602 11.4421H32.2139C32.0379 10.826 31.7738 10.2099 31.5098 9.68177H23.7643C24.0284 9.06565 24.3805 8.53756 24.7325 7.92144H30.6296C30.2775 7.30533 29.8375 6.68922 29.3094 6.16112H26.0528C26.5809 5.54501 27.109 5.01692 27.7251 4.48882C24.8205 1.76032 20.8598 0.176032 16.547 0.176032C16.547 -1.705e-07 16.547 0 16.459 0Z" fill="#FF5050"/>
<path d="M0 16.635C0 25.7887 7.39335 33.2701 16.635 33.2701C20.9478 33.2701 24.8205 31.5978 27.8131 28.9573C28.4292 28.4292 28.9573 27.8131 29.4854 27.197H26.0528C25.6127 26.6689 25.1726 26.0528 24.8205 25.5247H30.7176C31.0697 24.9966 31.4217 24.3805 31.6858 23.7643H23.8524C23.5883 23.2363 23.3243 22.6201 23.1482 22.004H32.3019C32.83 20.3317 33.1821 18.5714 33.1821 16.7231C33.1821 15.4908 33.006 14.3466 32.83 13.2024H22.6201C22.7081 12.5863 22.8842 12.0582 23.0602 11.4421H32.2139C32.0379 10.826 31.7738 10.2099 31.5098 9.68178H23.7643C24.0284 9.06567 24.3805 8.53757 24.7325 7.92146H30.6296C30.2775 7.30534 29.8375 6.68923 29.3094 6.16113H26.0528C26.5809 5.54502 27.109 5.01693 27.7251 4.48883C24.8205 1.76033 20.8598 0.176041 16.547 0.176041H16.459" fill="#E52836"/>
<path d="M16.635 33.2701C20.9478 33.2701 24.8205 31.5978 27.8131 28.9573C28.4292 28.4292 28.9573 27.8131 29.4854 27.197H26.0527C25.6127 26.6689 25.1726 26.0528 24.8205 25.5247H30.7176C31.0697 24.9966 31.4217 24.3805 31.6858 23.7643H23.8523C23.5883 23.2363 23.3242 22.6201 23.1482 22.004H32.3019C32.83 20.3317 33.182 18.5714 33.182 16.7231C33.182 15.4908 33.006 14.3466 32.83 13.2024H22.6201C22.7081 12.5863 22.8842 12.0582 23.0602 11.4421H32.2139C32.0378 10.826 31.7738 10.2099 31.5097 9.68178H23.7643C24.0284 9.06567 24.3804 8.53757 24.7325 7.92146H30.6296C30.2775 7.30534 29.8374 6.68923 29.3093 6.16113H26.0527C26.5808 5.54502 27.1089 5.01693 27.725 4.48883C24.8205 1.76033 20.8598 0.176041 16.547 0.176041H16.459" fill="#CB2026"/>
<path d="M22.532 20.8598L22.796 19.3635C22.708 19.3635 22.532 19.4516 22.3559 19.4516C21.7398 19.4516 21.6518 19.0995 21.7398 18.9235L22.2679 15.8429H23.2361L23.5001 14.1706H22.62L22.796 13.1144H21.0357C21.0357 13.1144 19.9795 18.9235 19.9795 19.6276C19.9795 20.6838 20.5956 21.1239 21.3877 21.1239C21.9158 21.1239 22.3559 20.9478 22.532 20.8598Z" fill="white"/>
<path d="M23.1482 18.0433C23.1482 20.5078 24.8205 21.1239 26.2288 21.1239C27.549 21.1239 28.0771 20.8598 28.0771 20.8598L28.4292 19.1875C28.4292 19.1875 27.461 19.6276 26.5808 19.6276C24.6445 19.6276 24.9965 18.2193 24.9965 18.2193H28.6052C28.6052 18.2193 28.8692 17.0751 28.8692 16.635C28.8692 15.4908 28.2531 14.0826 26.3168 14.0826C24.4684 13.9065 23.1482 15.8429 23.1482 18.0433ZM26.2288 15.4908C27.1969 15.4908 27.0209 16.635 27.0209 16.7231H25.0845C25.0845 16.635 25.2606 15.4908 26.2288 15.4908Z" fill="white"/>
<path d="M37.4068 20.8598L37.7589 18.9235C37.7589 18.9235 36.8787 19.3635 36.2626 19.3635C35.0304 19.3635 34.5023 18.3954 34.5023 17.3392C34.5023 15.2268 35.5585 14.0826 36.7907 14.0826C37.6708 14.0826 38.375 14.6107 38.375 14.6107L38.639 12.7623C38.639 12.7623 37.5828 12.3223 36.6147 12.3223C34.5903 12.3223 32.5659 14.0826 32.5659 17.4272C32.5659 19.6276 33.6221 21.1239 35.7345 21.1239C36.4386 21.1239 37.4068 20.8598 37.4068 20.8598Z" fill="white"/>
<path d="M12.8502 13.9065C11.618 13.9065 10.7378 14.2586 10.7378 14.2586L10.4738 15.7549C10.4738 15.7549 11.2659 15.4028 12.4101 15.4028C13.0263 15.4028 13.5544 15.4908 13.5544 16.0189C13.5544 16.371 13.4663 16.459 13.4663 16.459C13.4663 16.459 12.9382 16.459 12.6742 16.459C11.1779 16.459 9.50562 17.0751 9.50562 19.0995C9.50562 20.6838 10.5618 21.0358 11.1779 21.0358C12.4101 21.0358 12.9382 20.2437 13.0263 20.2437L12.9382 20.9478H14.5225L15.2267 16.1069C15.2267 13.9946 13.4663 13.9065 12.8502 13.9065ZM13.2023 17.8673C13.2023 18.1313 13.0263 19.5396 11.9701 19.5396C11.442 19.5396 11.2659 19.0995 11.2659 18.8354C11.2659 18.3954 11.53 17.7792 12.8502 17.7792C13.1143 17.8673 13.2023 17.8673 13.2023 17.8673Z" fill="white"/>
<path d="M16.899 21.0359C17.3391 21.0359 19.5395 21.1239 19.5395 18.7474C19.5395 16.547 17.4271 16.9871 17.4271 16.107C17.4271 15.6669 17.7792 15.4908 18.3953 15.4908C18.6593 15.4908 19.6275 15.5789 19.6275 15.5789L19.8916 13.9946C19.8916 13.9946 19.2754 13.8185 18.2192 13.8185C16.899 13.8185 15.5788 14.3466 15.5788 16.107C15.5788 18.1313 17.7792 17.9553 17.7792 18.7474C17.7792 19.2755 17.1631 19.3636 16.723 19.3636C15.9308 19.3636 15.1387 19.0995 15.1387 19.0995L14.8746 20.6838C14.9626 20.8598 15.4027 21.0359 16.899 21.0359Z" fill="white"/>
<path d="M52.0174 12.4983L51.6653 14.8747C51.6653 14.8747 50.9612 13.9946 49.993 13.9946C48.4087 13.9946 47.0005 15.9309 47.0005 18.2193C47.0005 19.6276 47.7046 21.1239 49.2009 21.1239C50.2571 21.1239 50.8732 20.4197 50.8732 20.4197L50.7852 21.0359H52.5455L53.8657 12.5863L52.0174 12.4983ZM51.2253 17.1631C51.2253 18.1313 50.7852 19.3636 49.817 19.3636C49.2009 19.3636 48.8488 18.8355 48.8488 17.9553C48.8488 16.547 49.4649 15.6669 50.2571 15.6669C50.8732 15.6669 51.2253 16.107 51.2253 17.1631Z" fill="white"/>
<path d="M3.25653 20.9478L4.31273 14.6107L4.48876 20.9478H5.72098L8.0094 14.6107L7.04123 20.9478H8.88956L10.2978 12.4983H7.39329L5.63297 17.6912L5.54495 12.4983H2.99249L1.58423 20.9478H3.25653Z" fill="white"/>
<path d="M30.5415 20.9478C31.0696 18.0433 31.1576 15.6669 32.3898 16.1069C32.5658 14.9627 32.8299 14.5227 33.0059 14.0826C33.0059 14.0826 32.9179 14.0826 32.6538 14.0826C31.8617 14.0826 31.2456 15.1388 31.2456 15.1388L31.4216 14.1706H29.7493L28.6051 21.0358H30.5415V20.9478Z" fill="white"/>
<path d="M41.4555 13.9065C40.2232 13.9065 39.3431 14.2586 39.3431 14.2586L39.079 15.7549C39.079 15.7549 39.8712 15.4028 41.0154 15.4028C41.6315 15.4028 42.1596 15.4908 42.1596 16.0189C42.1596 16.371 42.0716 16.459 42.0716 16.459C42.0716 16.459 41.5435 16.459 41.2794 16.459C39.7831 16.459 38.1108 17.0751 38.1108 19.0995C38.1108 20.6838 39.167 21.0358 39.7831 21.0358C41.0154 21.0358 41.5435 20.2437 41.6315 20.2437L41.5435 20.9478H43.1278L43.8319 16.1069C43.9199 13.9946 42.0716 13.9065 41.4555 13.9065ZM41.8955 17.8673C41.8955 18.1313 41.7195 19.5396 40.6633 19.5396C40.1352 19.5396 39.9592 19.0995 39.9592 18.8354C39.9592 18.3954 40.2232 17.7792 41.5435 17.7792C41.8075 17.8673 41.8075 17.8673 41.8955 17.8673Z" fill="white"/>
<path d="M45.3282 20.9478C45.8563 18.0433 45.9443 15.6669 47.1765 16.1069C47.3526 14.9627 47.6166 14.5227 47.7927 14.0826C47.7927 14.0826 47.7046 14.0826 47.4406 14.0826C46.6484 14.0826 46.0323 15.1388 46.0323 15.1388L46.2084 14.1706H44.5361L43.3918 21.0358H45.3282V20.9478Z" fill="white"/>
<path d="M19.8036 19.6276C19.8036 20.6838 20.4197 21.1239 21.2118 21.1239C21.828 21.1239 22.3561 20.9478 22.5321 20.8598L22.7961 19.3635C22.7081 19.3635 22.5321 19.4516 22.3561 19.4516C21.7399 19.4516 21.6519 19.0995 21.7399 18.9235L22.268 15.8429H23.2362L23.5003 14.1706H22.6201L22.7961 13.1144" fill="#DCE5E5"/>
<path d="M24.0283 18.0433C24.0283 20.5078 24.8205 21.1239 26.2287 21.1239C27.549 21.1239 28.0771 20.8598 28.0771 20.8598L28.4291 19.1875C28.4291 19.1875 27.4609 19.6276 26.5808 19.6276C24.6444 19.6276 24.9965 18.2193 24.9965 18.2193H28.6052C28.6052 18.2193 28.8692 17.0751 28.8692 16.635C28.8692 15.4908 28.2531 14.0826 26.3167 14.0826C24.4684 13.9065 24.0283 15.8429 24.0283 18.0433ZM26.2287 15.4908C27.1969 15.4908 27.3729 16.635 27.3729 16.7231H25.0845C25.0845 16.635 25.2605 15.4908 26.2287 15.4908Z" fill="#DCE5E5"/>
<path d="M37.4068 20.8598L37.7588 18.9235C37.7588 18.9235 36.8787 19.3635 36.2626 19.3635C35.0303 19.3635 34.5022 18.3954 34.5022 17.3392C34.5022 15.2268 35.5584 14.0826 36.7907 14.0826C37.6708 14.0826 38.3749 14.6107 38.3749 14.6107L38.639 12.7623C38.639 12.7623 37.5828 12.3223 36.6146 12.3223C34.5903 12.3223 33.446 14.0826 33.446 17.4272C33.446 19.6276 33.6221 21.1239 35.7345 21.1239C36.4386 21.1239 37.4068 20.8598 37.4068 20.8598Z" fill="#DCE5E5"/>
<path d="M10.4738 15.8429C10.4738 15.8429 11.2659 15.4908 12.4101 15.4908C13.0263 15.4908 13.5544 15.5789 13.5544 16.1069C13.5544 16.459 13.4663 16.547 13.4663 16.547C13.4663 16.547 12.9382 16.547 12.6742 16.547C11.1779 16.547 9.50562 17.1631 9.50562 19.1875C9.50562 20.7718 10.5618 21.1239 11.1779 21.1239C12.4101 21.1239 12.9382 20.3317 13.0263 20.3317L12.9382 21.0358H14.5225L15.2267 16.195C15.2267 14.1706 13.4663 14.0826 12.7622 14.0826L10.4738 15.8429ZM14.0824 17.8673C14.0824 18.1313 13.0263 19.5396 11.9701 19.5396C11.442 19.5396 11.2659 19.0995 11.2659 18.8354C11.2659 18.3954 11.53 17.7792 12.8502 17.7792C13.1143 17.8673 14.0824 17.8673 14.0824 17.8673Z" fill="#DCE5E5"/>
<path d="M14.9626 20.8598C14.9626 20.8598 15.4907 21.0359 16.987 21.0359C17.4271 21.0359 19.6275 21.1239 19.6275 18.7474C19.6275 16.547 17.5151 16.9871 17.5151 16.107C17.5151 15.6669 17.8672 15.4908 18.4833 15.4908C18.7473 15.4908 19.7155 15.5789 19.7155 15.5789L19.9796 13.9946C19.9796 13.9946 19.3635 13.8185 18.3073 13.8185C16.987 13.8185 16.5469 14.3466 16.5469 16.107C16.5469 18.1313 17.8672 17.9553 17.8672 18.7474C17.8672 19.2755 17.2511 19.3636 16.811 19.3636" fill="#DCE5E5"/>
<path d="M51.6653 14.8747C51.6653 14.8747 50.9612 13.9946 49.993 13.9946C48.4087 13.9946 47.8807 15.9309 47.8807 18.2193C47.8807 19.6276 47.7046 21.1239 49.2009 21.1239C50.2571 21.1239 50.8732 20.4197 50.8732 20.4197L50.7852 21.0358H52.5455L53.8657 12.5863L51.6653 14.8747ZM51.5773 17.1631C51.5773 18.1313 50.7852 19.3635 49.817 19.3635C49.2009 19.3635 48.8488 18.8354 48.8488 17.9553C48.8488 16.547 49.4649 15.6669 50.2571 15.6669C50.8732 15.6669 51.5773 16.1069 51.5773 17.1631Z" fill="#DCE5E5"/>
<path d="M3.25653 20.9478L4.31273 14.6107L4.48876 20.9478H5.72098L8.0094 14.6107L7.04123 20.9478H8.88956L10.2978 12.4983H8.09742L5.63297 17.6912L5.54495 12.4983H4.57678L1.58423 20.9478H3.25653Z" fill="#DCE5E5"/>
<path d="M28.6931 20.9478H30.5415C31.0696 18.0433 31.1576 15.6669 32.3898 16.107C32.5658 14.9627 32.8299 14.5227 33.0059 14.0826C33.0059 14.0826 32.9179 14.0826 32.6538 14.0826C31.8617 14.0826 31.2456 15.1388 31.2456 15.1388L31.4216 14.1706" fill="#DCE5E5"/>
<path d="M39.079 15.8429C39.079 15.8429 39.8712 15.4908 41.0154 15.4908C41.6315 15.4908 42.1596 15.5789 42.1596 16.1069C42.1596 16.459 42.0716 16.547 42.0716 16.547C42.0716 16.547 41.5435 16.547 41.2794 16.547C39.7831 16.547 38.1108 17.1631 38.1108 19.1875C38.1108 20.7718 39.167 21.1239 39.7831 21.1239C41.0154 21.1239 41.5435 20.3317 41.6315 20.3317L41.5435 21.0358H43.1278L43.8319 16.195C43.8319 14.1706 42.0716 14.0826 41.3674 14.0826L39.079 15.8429ZM42.6877 17.8673C42.6877 18.1313 41.6315 19.5396 40.5753 19.5396C40.0472 19.5396 39.8712 19.0995 39.8712 18.8354C39.8712 18.3954 40.1352 17.7792 41.4554 17.7792C41.8075 17.8673 42.6877 17.8673 42.6877 17.8673Z" fill="#DCE5E5"/>
<path d="M43.4799 20.9478H45.3282C45.8563 18.0433 45.9443 15.6669 47.1765 16.107C47.3526 14.9627 47.6166 14.5227 47.7926 14.0826C47.7926 14.0826 47.7046 14.0826 47.4406 14.0826C46.6484 14.0826 46.0323 15.1388 46.0323 15.1388L46.2084 14.1706" fill="#DCE5E5"/>
<path d="M102.101 27.5263L106.103 5.01573H112.356L108.479 27.5263H102.101Z" fill="#3C58BF"/>
<path d="M102.101 27.5263L107.229 5.01573H112.356L108.479 27.5263H102.101Z" fill="#293688"/>
<path d="M131.115 5.26587C129.864 4.76563 127.864 4.2654 125.362 4.2654C119.109 4.2654 114.607 7.39186 114.607 11.894C114.607 15.2706 117.734 17.0214 120.235 18.1469C122.736 19.2725 123.486 20.0228 123.486 21.0233C123.486 22.524 121.486 23.2743 119.735 23.2743C117.234 23.2743 115.858 22.8992 113.732 22.0237L112.856 21.6486L111.981 26.776C113.482 27.4013 116.233 28.0266 119.109 28.0266C125.738 28.0266 130.115 24.9001 130.115 20.1479C130.115 17.5216 128.489 15.5207 124.737 13.8949C122.486 12.7694 121.11 12.1441 121.11 11.0186C121.11 10.0181 122.236 9.01763 124.737 9.01763C126.863 9.01763 128.364 9.39281 129.489 9.89304L130.115 10.1432L131.115 5.26587Z" fill="#3C58BF"/>
<path d="M131.115 5.26587C129.864 4.76563 127.864 4.2654 125.362 4.2654C119.109 4.2654 115.733 7.39186 115.733 11.894C115.733 15.2706 117.734 17.0214 120.235 18.1469C122.736 19.2725 123.486 20.0228 123.486 21.0233C123.486 22.524 121.486 23.2743 119.735 23.2743C117.234 23.2743 115.858 22.8992 113.732 22.0237L112.856 21.6486L111.981 26.776C113.482 27.4013 116.233 28.0266 119.109 28.0266C125.738 28.0266 130.115 24.9001 130.115 20.1479C130.115 17.5216 128.489 15.5207 124.737 13.8949C122.486 12.7694 121.11 12.1441 121.11 11.0186C121.11 10.0181 122.236 9.01763 124.737 9.01763C126.863 9.01763 128.364 9.39281 129.489 9.89304L130.115 10.1432L131.115 5.26587Z" fill="#293688"/>
<path d="M141.87 5.01573C140.369 5.01573 139.244 5.14079 138.619 6.6415L129.239 27.5263H135.992L137.243 23.7745H145.247L145.997 27.5263H152L146.747 5.01573H141.87ZM138.994 20.0228C139.369 18.8973 141.495 13.3947 141.495 13.3947C141.495 13.3947 141.995 12.019 142.37 11.1436L142.746 13.2696C142.746 13.2696 143.996 18.8973 144.246 20.1478H138.994V20.0228Z" fill="#3C58BF"/>
<path d="M143.371 5.01573C141.87 5.01573 140.745 5.14079 140.119 6.6415L129.239 27.5263H135.992L137.243 23.7745H145.247L145.997 27.5263H152L146.747 5.01573H143.371ZM138.994 20.0228C139.494 18.7722 141.495 13.3947 141.495 13.3947C141.495 13.3947 141.995 12.019 142.37 11.1436L142.746 13.2696C142.746 13.2696 143.996 18.8973 144.246 20.1478H138.994V20.0228Z" fill="#293688"/>
<path d="M90.596 20.7732L89.9707 17.5216C88.8451 13.7699 85.2184 9.64293 81.2166 7.64199L86.8442 27.6514H93.5974L103.727 5.14082H96.974L90.596 20.7732Z" fill="#3C58BF"/>
<path d="M90.596 20.7732L89.9707 17.5216C88.8451 13.7699 85.2184 9.64293 81.2166 7.64199L86.8442 27.6514H93.5974L103.727 5.14082H98.2246L90.596 20.7732Z" fill="#293688"/>
<path d="M73.2129 5.01573L74.3384 5.26585C82.3422 7.14173 87.8448 11.894 89.9708 17.5216L87.7197 6.89161C87.3445 5.39091 86.219 5.01573 84.8434 5.01573H73.2129Z" fill="#FFBC00"/>
<path d="M73.2129 5.01573C81.2167 6.89161 87.8448 11.7689 89.9708 17.3966L87.8448 8.51738C87.4696 7.01667 86.219 6.14126 84.8434 6.14126L73.2129 5.01573Z" fill="#F7981D"/>
<path d="M73.2129 5.01573C81.2167 6.89161 87.8448 11.7689 89.9708 17.3966L88.4701 12.5193C88.0949 11.0186 87.5947 9.51785 85.8438 8.89256L73.2129 5.01573Z" fill="#ED7C00"/>
<path d="M96.849 20.0228L92.597 15.7708L90.596 20.523L90.0958 17.3966C88.9703 13.6448 85.3436 9.51787 81.3417 7.51693L86.9693 27.5263H93.7225L96.849 20.0228Z" fill="#051244"/>
<path d="M108.479 27.5263L103.102 22.0238L102.101 27.5263H108.479Z" fill="#051244"/>
<path d="M122.861 19.7727C123.361 20.2729 123.612 20.6481 123.486 21.1483C123.486 22.649 121.486 23.3994 119.735 23.3994C117.234 23.3994 115.858 23.0242 113.732 22.1488L112.856 21.7736L111.981 26.901C113.482 27.5263 116.233 28.1516 119.109 28.1516C123.111 28.1516 126.363 27.0261 128.239 25.0252L122.861 19.7727Z" fill="#051244"/>
<path d="M130.115 27.5263H135.992L137.243 23.7746H145.247L145.997 27.5263H152L149.874 18.397L142.37 11.1436L142.746 13.1446C142.746 13.1446 143.996 18.7722 144.246 20.0228H138.994C139.494 18.7722 141.495 13.3947 141.495 13.3947C141.495 13.3947 141.995 12.019 142.37 11.1436" fill="#051244"/>
</svg>
